# xmcd
#
# Track frame offsets: 
#        200
#        34825
#        59517
#        71790
#        89875
#        120852
#        141787
#        162835
#        185237
#        194560
#        207320
#        227532
#        249462
#        269612
#
# Disc length: 3882 seconds
#
# Revision: 3
# Processed by: cddbd v1.5.1PL2 Copyright (c) Steve Scherf et al.
# Submitted via: ExactAudioCopy v0.95a5
#
DISCID=d90f280e
DTITLE=Various Artist - Rattlesnake Guitar - The Music Of Peter Green (1 of 2
DTITLE=)
DYEAR=1995
DGENRE=Blues
TTITLE0=Billy Sheehan - Oh Well
TTITLE1=Vince Converse and Innes Sibun - Rattlesnake Shake
TTITLE2=Stu Hamm, Jonathan Mover, Larry Mitchell - Fleetwood Mac
TTITLE3=Zoot Money  and Bobby Tench - Watcha Gonna Do
TTITLE4=Rory Gallagher - Showbiz Blues
TTITLE5=Luther Grosvenor, Mike Kellie, Jess Roden - Merry Go Round
TTITLE6=Paul Jones, Bobby Tench, Max Middleton - Albatross
TTITLE7=Naked Blue - Closing My Eyes
TTITLE8=Ray Gomez - Evil Woman Blues
TTITLE9=Troy Turner - Lazy Poker Blues
TTITLE10=Harvey Mandel and Jon Paris - Watch Out
TTITLE11=Harvey Mandel and Wilbur Bascomb - Long Grey Mare
TTITLE12=Kim Lembo - A Fool No More
TTITLE13=Southside Johnny and The Uptown Horns - Baby When The Sun Goes 
TTITLE13=Down
EXTD=
EXTT0=
EXTT1=
EXTT2=
EXTT3=
EXTT4=
EXTT5=
EXTT6=
EXTT7=
EXTT8=
EXTT9=
EXTT10=
EXTT11=
EXTT12=
EXTT13=
PLAYORDER=
